HIERARCHY
ROOT Hips
{
  OFFSET -37.7579 96.335 76.485
  CHANNELS 6 Xposition Yposition Zposition Zrotation Xrotation Yrotation
  JOINT RightUpLeg
  {
    OFFSET -8.9458 -8.66707 0.101652
    CHANNELS 3 Zrotation Xrotation Yrotation
    JOINT RightLeg
    {
      OFFSET 0 -44.4227 1.3727
      CHANNELS 3 Zrotation Xrotation Yrotation
      JOINT RightFoot
      {
        OFFSET 0.253549 -42.0924 -1.46059
        CHANNELS 3 Zrotation Xrotation Yrotation
        JOINT RightToes
        {
          OFFSET 0.04 -4.41509 8.4991
          CHANNELS 3 Zrotation Xrotation Yrotation
          End Site
          {
            OFFSET -0.08 -0.137448 9.77979
          }
        }
      }
    }
  }
  JOINT Spine
  {
    OFFSET 0 11.8905 0
    CHANNELS 3 Zrotation Xrotation Yrotation
    JOINT Spine1
    {
      OFFSET 0 25.6574 0.127663
      CHANNELS 3 Zrotation Xrotation Yrotation
      JOINT HEad
      {
        OFFSET 0 8.73416 0.011341
        CHANNELS 3 Zrotation Xrotation Yrotation
        End Site
        {
          OFFSET -0.29 12.7742 2.51395
        }
      }
      JOINT LeftShoulder1
      {
        OFFSET 8.99 -0.362252 -0.22
        CHANNELS 3 Zrotation Xrotation Yrotation
        JOINT LeftArm
        {
          OFFSET 10.2827 -0.00338 0.322123
          CHANNELS 3 Zrotation Xrotation Yrotation
          JOINT LeftForeArm
          {
            OFFSET 32.7669 0.099144 -1.42434
            CHANNELS 3 Zrotation Xrotation Yrotation
            JOINT LeftHand
            {
              OFFSET 27.5643 0.085362 1.02216
              CHANNELS 3 Zrotation Xrotation Yrotation
              End Site
              {
                OFFSET 16.7443 -0.6 1.50291
              }
            }
          }
        }
      }
      JOINT RightShoulder
      {
        OFFSET -8.99 -0.362252 -0.22
        CHANNELS 3 Zrotation Xrotation Yrotation
        JOINT RightArm
        {
          OFFSET -10.2827 -0.00338 0.322123
          CHANNELS 3 Zrotation Xrotation Yrotation
          JOINT RightForeArm
          {
            OFFSET -32.8971 0.099144 -1.42434
            CHANNELS 3 Zrotation Xrotation Yrotation
            JOINT RightHand
            {
              OFFSET -27.4921 0.085362 1.02216
              CHANNELS 3 Zrotation Xrotation Yrotation
              End Site
              {
                OFFSET -16.6312 -0.6 1.50291
              }
            }
          }
        }
      }
    }
  }
  JOINT LeftUpLeg
  {
    OFFSET 8.9458 -8.66707 0.101652
    CHANNELS 3 Zrotation Xrotation Yrotation
    JOINT LeftLeg
    {
      OFFSET 0 -44.4227 1.3727
      CHANNELS 3 Zrotation Xrotation Yrotation
      JOINT LeftFoot
      {
        OFFSET -0.253549 -42.0924 -1.46059
        CHANNELS 3 Zrotation Xrotation Yrotation
        JOINT LeftToes
        {
          OFFSET -0.04 -4.41509 8.4991
          CHANNELS 3 Zrotation Xrotation Yrotation
          End Site
          {
            OFFSET 0.08 -0.047448 9.77979
          }
        }
      }
    }
  }
}
MOTION
Frames:	21
Frame Time:	0.0166667
-79.8384 96.4107 62.6656 -16.827 5.87881 -101.692 -26.3746 4.02042 7.68419 34.1238 32.0072 -44.9487 -1.31082 0.334015 -0.793877 0.0462048 0.000533403 0.662642 6.68205 24.0482 -11.9543 -0.0201196 0.01432 3.67753e-007 0.810266 5.03467 6.62008 7.95139e-016 -1.59028e-015 -0 -170.501 -67.6169 -135.003 -83.435 55.5707 -27.9568 19.741 18.6031 -16.4931 8.90952 15.0833 -0.549301 107.67 -6.51957 72.57 16.5892 55.0331 96.472 15.7773 20.6176 2.87277 25.9393 -15.2928 -30.0874 -30.2734 5.32853 65.3427 -6.50514 -3.82317 -0.569866 -1.18447e-009 1.5602e-007 -4.87131e-009 
-81.5513 96.1909 63.4389 -16.6627 6.74875 -102.851 -26.1274 3.87013 7.78497 33.4175 33.511 -43.9261 1.52956 0.37645 -0.73614 0.0462048 0.000533403 0.662642 8.4136 23.775 -11.4884 -0.0196898 0.01308 3.67753e-007 1.43681 5.05352 7.31371 0 0 -6.36111e-015 -170.624 -67.4872 -135.086 -83.2654 55.7214 -28.0804 19.8543 18.0802 -16.2319 8.17368 14.8729 -1.00972 108.187 -5.93256 72.4848 15.884 55.1812 96.9706 16.1561 20.5738 2.43636 26.484 -15.5516 -30.0714 -30.2403 5.95014 65.6025 -6.62534 -3.8743 -0.593692 -1.18446e-009 1.5602e-007 -4.87132e-009 
-83.2099 95.9843 64.1989 -16.442 7.56036 -103.966 -25.8172 3.78642 7.90323 32.5445 34.7209 -42.7651 4.21142 0.372946 -0.669476 0.0462048 0.000533403 0.662642 9.81531 23.6349 -10.9575 -0.0191084 0.01207 3.67753e-007 2.12723 4.97906 7.9935 -7.95139e-016 -1.59028e-015 3.18055e-015 -170.122 -67.3706 -134.692 -82.7797 55.8394 -28.5031 19.9585 17.6376 -16.0249 7.54883 14.6026 -1.4399 108.728 -5.44568 72.4406 15.3428 55.3156 97.3994 16.5406 20.5007 2.0325 26.8182 -15.599 -30.0212 -30.5053 7.14473 65.8425 -7.02761 -3.8 -0.63023 -1.18446e-009 1.5602e-007 -4.87131e-009 
-84.7955 95.8125 64.9406 -16.165 8.29402 -105.021 -25.4621 3.75638 8.03015 31.5243 35.6055 -41.4791 6.71231 0.343755 -0.598024 0.0462048 0.000533403 0.662642 10.878 23.5994 -10.385 -0.0185552 0.011158 3.67753e-007 2.86076 4.81927 8.66032 1.59028e-015 0 -0 -168.963 -67.2561 -133.76 -81.9226 55.9211 -29.2528 20.0802 17.1953 -15.778 7.04038 14.2781 -1.81216 109.267 -5.07939 72.4537 14.9736 55.4309 97.7192 16.9599 20.422 1.60231 26.9873 -15.4644 -29.9001 -30.8959 8.50847 66.0473 -7.49445 -3.67331 -0.663535 -1.18446e-009 1.5602e-007 -4.87131e-009 
-86.3223 95.6993 65.6662 -15.8502 8.93434 -106.011 -25.0984 3.7923 8.17796 30.3809 36.1629 -40.0828 9.03537 0.302763 -0.52525 0.0462048 0.000533403 0.662642 11.5957 23.6488 -9.77883 -0.0178528 0.010296 3.67753e-007 3.61557 4.58668 9.31197 1.59028e-015 -1.19271e-015 3.18055e-015 -167.248 -67.1264 -132.367 -80.741 55.9665 -30.2851 20.1741 16.8668 -15.5966 6.67455 13.9049 -2.10576 109.766 -4.84982 72.5266 14.763 55.5246 97.9251 17.3126 20.3321 1.24111 27.0372 -15.2063 -29.6739 -31.2955 9.79947 66.2359 -7.88666 -3.53941 -0.685861 -1.18447e-009 1.5602e-007 -4.87131e-009 
-87.8423 95.673 66.383 -15.5334 9.47598 -106.926 -23.2472 3.10325 7.58822 30.4948 36.8748 -38.7631 -10.9181 0.69899 -1.07313 0.0462048 0.000533403 0.662642 11.9839 23.7718 -9.156 -0.0168236 0.00943602 3.67753e-007 4.36484 4.29893 9.94297 0 3.97569e-016 -0 -165.156 -66.9684 -130.664 -79.339 55.9801 -31.5155 20.2476 16.5899 -15.4084 6.47453 13.4959 -2.31313 110.185 -4.7666 72.6493 14.6831 55.5962 98.04 17.6171 20.2502 0.91049 27.0127 -14.8746 -29.3374 -31.7131 10.9378 66.4562 -8.14423 -3.4515 -0.707265 -1.18446e-009 1.5602e-007 -4.87132e-009 
-89.3183 95.5051 67.0692 -15.2447 9.91349 -107.762 -21.1259 3.2592 7.11663 29.5144 36.2879 -36.7402 -30.7903 1.72634 -1.28017 0.0462048 0.000533403 0.662642 12.0672 23.9488 -8.52472 -0.01529 0.00853002 3.67753e-007 5.07869 3.97707 10.545 -8.82781e-032 -7.95139e-016 -6.36111e-015 -162.838 -66.7798 -128.775 -77.8127 55.9687 -32.8733 20.2805 16.4191 -15.2819 6.45908 13.066 -2.43411 110.49 -4.84034 72.8036 14.7034 55.644 98.1013 17.8215 20.1736 0.672631 27.2068 -14.8668 -28.8101 -32.8652 12.1815 66.9762 -8.24637 -3.68854 -0.852856 -1.18447e-009 1.5602e-007 -4.87131e-009 
-90.8509 95.6622 67.7531 -15.0119 10.2546 -108.51 -20.7169 3.00031 7.28732 31.6076 38.1508 -36.3552 -30.4353 1.74518 -1.20595 0.0462048 0.000533403 0.662642 11.8964 24.1614 -7.9038 -0.01248 0.00755001 0.0005703 5.72782 3.64322 11.1074 4.41391e-032 -3.97569e-016 6.36111e-015 -160.348 -66.5656 -126.745 -76.195 55.9312 -34.3439 20.2936 16.3296 -15.1892 6.65249 12.6285 -2.46615 110.648 -5.08725 72.9678 14.7937 55.6664 98.1504 17.9413 20.1081 0.513076 27.0198 -14.4076 -28.2876 -33.2042 12.9776 67.3145 -8.2211 -3.62988 -0.86642 -1.18447e-009 1.5602e-007 -4.87132e-009 
-92.2431 95.9093 68.3759 -14.8831 10.5893 -109.217 -19.9788 2.64702 7.38069 32.0186 39.7563 -34.6009 -29.5063 1.64397 -1.27444 0.0462048 0.000533403 0.662642 11.8149 23.8018 -7.50293 0.0142797 -0.03684 -0.0104503 6.47059 4.18739 11.2981 -1.59028e-015 1.19271e-015 -0 -157.128 -66.4403 -124.93 -75.0689 56.2725 -36.5353 19.1681 19.0419 -19.2988 9.34018 9.92716 -2.04088 108.077 -8.28002 71.7331 14.6556 55.8348 99.092 13.3199 23.661 1.38562 26.4355 -14.162 -27.4369 -33.247 14.516 65.99 -6.16172 -3.58206 -0.74197 -1.18446e-009 1.5602e-007 -4.87132e-009 
-93.3147 96.2068 69.0011 -14.8516 10.9085 -109.904 -18.9889 2.24341 7.39083 30.5805 41.1316 -31.305 -27.869 1.45377 -1.25886 0.0462048 0.000533403 0.662642 11.8638 22.9243 -7.32918 0.0190097 -0.03772 -0.0119904 7.21312 5.58908 11.1212 7.95139e-016 1.98785e-015 -0 -153.213 -66.3515 -123.159 -74.3644 57.068 -39.4044 17.4724 23.04 -24.3491 13.9522 5.86802 -1.24061 102.968 -13.3778 69.4657 14.2786 56.1141 100.787 6.32454 28.4295 2.39718 25.5997 -14.1347 -26.2558 -33.1126 16.8019 63.1768 -3.91844 -3.45723 -0.568841 -1.18446e-009 1.5602e-007 -4.87131e-009 
-94.1109 96.5019 69.5923 -14.8843 11.1987 -110.601 -17.7695 1.84628 7.301 27.5272 42.2327 -26.5111 -25.6222 1.12513 -1.22254 0.0462048 0.000533403 0.662642 12.0488 21.5814 -7.37177 0.0200696 -0.03388 -0.0130805 7.67575 7.58072 10.9768 -7.95139e-016 0 -0 -148.523 -66.2438 -121.21 -73.7544 58.264 -42.905 15.156 27.4398 -28.7467 20.0235 1.18047 -0.0662785 95.2632 -19.3419 66.2534 13.6572 56.4022 102.987 -1.33234 33.4079 2.37912 24.5897 -14.3492 -24.7125 -32.943 19.8452 59.0816 -1.69899 -3.23879 -0.358748 -1.18446e-009 1.5602e-007 -4.87131e-009 
-94.6331 96.7762 70.1721 -15.0113 11.4384 -111.343 -15.7199 1.28802 6.63249 21.9178 42.9403 -18.5785 -22.8201 0.493242 -1.19443 0.0462048 0.000533403 0.662642 12.7727 18.769 -8.27157 0.0626586 -0.0863601 -0.0541915 7.23416 12.7378 10.4232 -2.38542e-015 0 -0 -141.523 -66.0509 -118.664 -73.0846 60.2389 -47.4398 9.7604 30.8143 -29.0304 29.4824 -4.35586 1.59259 80.688 -26.6973 61.0468 12.194 56.7562 105.324 2.09069 19.4947 2.71299 23.3086 -14.7886 -22.0946 -32.8922 25.5025 51.2938 -4.70155 -2.9523 -0.536694 -1.18447e-009 1.5602e-007 -4.87131e-009 
-94.8122 97.2114 70.8114 -15.1382 11.6576 -112.201 -13.589 0.0100236 5.60339 15.6119 41.6435 -8.39404 -11.0795 -1.23321 -1.38497 0.0462048 0.000533403 0.662642 14.0312 14.9057 -10.0118 0.0634485 -0.0541801 -0.0591315 5.63684 20.3102 10.0368 7.95139e-016 -1.98785e-015 -6.36111e-015 -132.991 -65.5208 -115.668 -71.444 62.1954 -52.1722 5.16463 32.3207 -25.7506 38.6918 -8.52879 1.68662 63.874 -30.7447 56.6541 19.2475 57.5394 101.283 -2.7166 20.0276 1.80594 21.6133 -15.5426 -18.4041 -30.5716 32.0072 41.0588 -8.03169 -2.30461 -0.364137 -1.18446e-009 1.5602e-007 -4.87131e-009 
-94.6871 97.6517 71.5404 -15.1742 11.8982 -113.244 -10.4836 -1.59054 3.63817 9.69818 38.0531 1.80919 -7.81922 -1.97077 -0.872044 0.0462048 0.000533403 0.662642 15.7808 10.8416 -12.3822 0.0567384 -0.0188001 -0.0658714 2.40899 29.1254 10.4508 -8.82781e-032 -1.59028e-015 -3.18055e-015 -124.397 -64.2972 -113.886 -67.5176 62.1913 -56.4272 -0.167893 31.5541 -20.2633 37.5317 -3.92085 1.41592 59.969 -37.8761 60.7859 30.205 57.9368 94.2125 -0.868896 13.9373 1.86511 19.696 -16.8079 -13.7289 -25.7694 38.9547 28.4211 -11.6104 -1.5951 -0.295306 -1.18446e-009 1.5602e-007 -4.87131e-009 
-94.3773 98.074 72.3713 -14.7349 12.098 -116.464 -7.57661 -3.83603 2.75888 4.61199 35.4899 10.2397 -4.96252 -2.72645 -0.600642 0.0462048 0.000533403 0.662642 17.7774 7.32893 -13.4297 0.0497083 0.0230499 -0.0713012 -2.7018 36.8525 12.7612 2.38542e-015 -1.59028e-015 -0 -117.33 -63.3284 -113.777 -64.4206 62.5741 -58.637 5.2537 25.0761 -7.37981 35.4124 0.82963 1.911 58.0249 -41.7651 63.5184 36.9568 58.3752 88.9675 -4.10914 15.2579 1.03333 18.0306 -17.9788 -6.45807 -17.4927 45.3609 12.8713 -15.2869 -0.880663 -0.323416 -1.18446e-009 1.5602e-007 -4.87132e-009 
-93.7914 98.4919 73.2789 -13.7426 12.1296 -121.501 -5.1425 -6.78649 2.76018 1.52251 32.9169 13.5466 -0.0692061 -3.40891 -0.470119 0.0462048 0.000533403 0.662642 19.462 4.7215 -12.2317 -0.0164894 0.03818 0.0209904 -8.04509 43.2022 15.6282 -0 -7.95139e-016 -0 -110.472 -62.4736 -114.399 -62.5558 63.702 -59.4588 6.3434 21.2957 -1.82707 33.1785 4.82734 2.22788 57.3457 -43.4274 65.4608 41.1728 58.7619 84.8936 -3.32274 12.799 1.57976 17.583 -19.1008 2.30634 -7.52899 48.8009 -2.69138 -18.675 -0.171772 -0.354991 -1.18447e-009 1.5602e-007 -4.87132e-009 
-93.0393 98.8283 74.2711 -12.6643 12.1735 -126.084 -2.96274 -9.4558 1.49509 -0.9158 31.5325 13.5803 0.530815 -3.96005 -0.244218 0.0462048 0.000533403 0.662642 21.1239 2.83737 -11.1055 -0.0198594 0.03831 0.0228305 -13.8023 48.1647 19.2516 3.97569e-015 2.38542e-015 -6.36111e-015 -105.334 -62.8024 -116.823 -64.7923 61.7239 -55.3157 10.3026 17.6145 3.02768 30.7668 8.20412 2.57607 57.4192 -43.6485 66.9932 43.9475 58.8616 81.595 -5.30569 14.1623 1.41841 16.6271 -19.6926 9.14907 2.51834 49.1024 -16.0074 -21.7525 0.353094 -0.435913 -1.18447e-009 1.5602e-007 -4.87131e-009 
-92.1599 99.0299 75.3054 -11.5356 12.1726 -130.254 -1.62166 -11.9994 -0.924494 -2.96546 31.3901 11.7726 2.49972 -4.00625 -0.112402 0.0462048 0.000533403 0.662642 22.5955 1.59096 -10.0555 -0.0182294 0.03624 0.0209604 -19.6477 51.7798 23.3524 2.38542e-015 0 -6.36111e-015 -102.884 -65.2149 -117.214 -67.5934 62.4969 -52.3761 9.42728 16.6487 4.03743 28.4336 10.8645 3.04061 57.6433 -43.0623 68.0909 45.8512 58.6525 78.9193 -4.60567 13.3974 1.87834 15.2766 -19.8037 14.124 10.8968 47.1535 -25.8266 -24.5944 0.684984 -0.565261 -1.18446e-009 1.5602e-007 -4.87131e-009 
-91.1746 99.0828 76.3689 -10.4301 12.095 -134.026 -1.14471 -14.4877 -4.4454 -4.85754 32.8733 9.15795 3.29961 -3.82729 -0.0309323 0.0462048 0.000533403 0.662642 23.7802 1.92744 -9.95597 -0.029611 0.11634 -0.0480893 -25.6413 52.7992 28.2595 -3.97569e-015 7.95139e-016 -1.59028e-014 -105.99 -69.5353 -121.006 -70.7545 64.382 -50.6548 12.5768 14.9688 4.61302 26.1214 12.36 5.04753 57.8221 -42.1226 68.868 47.146 58.1497 76.8268 -5.58039 14.5863 1.91334 13.5667 -19.5011 17.371 17.2125 43.8662 -32.0298 -27.2706 0.820343 -0.727649 -1.18446e-009 1.5602e-007 -4.87131e-009 
-90.0799 98.982 77.417 -9.4039 11.9127 -137.404 -1.98285 -17.1432 -8.78828 -6.55443 36.4601 6.65302 5.30221 -3.02826 0.133487 0.0462048 0.000533403 0.662642 24.1856 2.66752 -9.85819 -0.00729936 0.02656 0.0251102 -30.3976 53.047 32.5162 -3.18055e-015 -1.59028e-015 6.36111e-015 -111.117 -73.6003 -126.579 -72.4786 65.0391 -49.7712 14.0119 15.1146 5.4192 24.4861 13.4459 6.8997 57.8007 -41.0793 69.3673 47.9742 57.5121 75.2895 -5.04149 14.4482 2.38034 11.667 -19.011 18.9643 21.7777 40.2019 -35.1111 -29.7498 0.697529 -0.916903 -1.18446e-009 1.5602e-007 -4.87131e-009 
-88.8054 98.7785 78.35 -8.53205 11.6277 -140.316 -2.77123 -19.5428 -13.0185 -9.34061 41.2746 6.86436 2.66301 -2.61099 -0.0214522 0.0462048 0.000533403 0.662642 23.9 3.6758 -9.64888 -0.00110927 0.01796 0.02897 -33.7612 52.5531 35.8834 -2.78299e-015 1.59028e-015 3.18055e-015 -120.461 -77.0171 -136.351 -70.9505 60.9734 -49.0831 11.1861 15.6766 1.37752 23.4762 14.0409 8.74051 57.6192 -40.0412 69.6302 48.4593 56.8216 74.2497 -5.67541 15.1786 2.69598 9.86298 -18.4263 19.0049 24.8862 36.7582 -35.6954 -31.9924 0.362362 -1.11603 -1.18447e-009 1.5602e-007 -4.87131e-009 
